<svg width="39" height="38" viewBox="0 0 39 38" fill="none" xmlns="http://www.w3.org/2000/svg">
<path d="M25.1402 12.235C27.7771 12.235 29.9147 9.49607 29.9147 6.11748C29.9147 2.73889 27.7771 0 25.1402 0C22.5033 0 20.3657 2.73889 20.3657 6.11748C20.3657 9.49607 22.5033 12.235 25.1402 12.235Z" fill="#FC8721"/>
<path d="M13.5406 12.235C16.1774 12.235 18.315 9.49607 18.315 6.11748C18.315 2.73889 16.1774 0 13.5406 0C10.9037 0 8.76611 2.73889 8.76611 6.11748C8.76611 9.49607 10.9037 12.235 13.5406 12.235Z" fill="#FC8721"/>
<path d="M4.77447 21.9068C7.41133 21.9068 9.54893 19.1679 9.54893 15.7894C9.54893 12.4108 7.41133 9.67188 4.77447 9.67188C2.1376 9.67188 0 12.4108 0 15.7894C0 19.1679 2.1376 21.9068 4.77447 21.9068Z" fill="#FC8721"/>
<path d="M33.9063 21.9068C36.5432 21.9068 38.6808 19.1679 38.6808 15.7894C38.6808 12.4108 36.5432 9.67188 33.9063 9.67188C31.2694 9.67188 29.1318 12.4108 29.1318 15.7894C29.1318 19.1679 31.2694 21.9068 33.9063 21.9068Z" fill="#FC8721"/>
<path d="M32.0155 27.2435L25.2443 16.591C24.6128 15.5973 23.7407 14.7791 22.7088 14.2122C21.6769 13.6454 20.5186 13.3481 19.3412 13.3481C18.1639 13.3481 17.0056 13.6454 15.9737 14.2122C14.9418 14.7791 14.0697 15.5973 13.4382 16.591L6.66486 27.2435C3.70398 31.8993 7.05006 38.0001 12.5679 38.0001H13.0738V29.0467H11.0687C10.9251 29.0471 10.785 29.0024 10.6682 28.9189C10.5513 28.8354 10.4637 28.7173 10.4177 28.5812C10.3717 28.4452 10.3695 28.2982 10.4116 28.1609C10.4537 28.0236 10.5379 27.903 10.6523 27.8161L18.9248 21.5945C19.0443 21.503 19.1907 21.4534 19.3412 21.4534C19.4918 21.4534 19.6381 21.503 19.7577 21.5945L28.024 27.7974C28.1383 27.8842 28.2225 28.0048 28.2646 28.1421C28.3067 28.2794 28.3046 28.4265 28.2585 28.5625C28.2125 28.6985 28.1249 28.8166 28.0081 28.9002C27.8913 28.9837 27.7511 29.0284 27.6075 29.0279H25.6024V37.9814H26.1084C31.6303 38.0001 34.9764 31.8993 32.0155 27.2435Z" fill="#FC8721"/>
<path d="M19.3413 30.5042C20.1145 30.5042 20.8559 30.8113 21.4026 31.358C21.9493 31.9046 22.2564 32.6461 22.2564 33.4192V38H16.4263V33.4192C16.4263 32.6461 16.7334 31.9046 17.2801 31.358C17.8268 30.8113 18.5682 30.5042 19.3413 30.5042Z" fill="#FC8721"/>
</svg>
