<svg width="24" height="24" viewBox="0 0 24 24" fill="none" xmlns="http://www.w3.org/2000/svg">
<g clip-path="url(#clip0_224_9008)">
<path d="M13.4995 20.666L13.4992 20.6658C13.0745 20.3236 12.5454 20.137 12 20.137C11.4545 20.137 10.9255 20.3236 10.5007 20.6658L10.5005 20.666L8.87558 21.9659C8.78753 22.0366 8.68132 22.081 8.56917 22.094C8.45701 22.107 8.34345 22.0881 8.24155 22.0395C8.13965 21.9909 8.05354 21.9145 7.99312 21.8191C7.93269 21.7237 7.90041 21.6132 7.89998 21.5003L7.89998 21.4999L7.89998 14.9179V14.7437L8.05039 14.8315C9.24906 15.5312 10.6121 15.8999 12 15.8999C13.3879 15.8999 14.7509 15.5312 15.9496 14.8315L16.1 14.7437V14.9179V21.4994V21.4999L13.4995 20.666ZM13.4995 20.666L15.1246 21.9653L13.4995 20.666ZM19.9 7.99969V7.99989C19.8997 9.91871 19.1972 11.7711 17.9251 13.2076L17.9 13.236V13.2739V21.4999C17.9 21.952 17.7723 22.3949 17.5316 22.7776C17.2909 23.1604 16.947 23.4673 16.5395 23.6631C16.132 23.859 15.6775 23.9357 15.2283 23.8845C14.7791 23.8333 14.3535 23.6563 14.0005 23.3738L14.0004 23.3738L12.3744 22.0738L12.3744 22.0738C12.2681 21.9889 12.136 21.9426 12 21.9426C11.8639 21.9426 11.7319 21.9889 11.6256 22.0738L11.6255 22.0738L9.99954 23.3738L9.9995 23.3738C9.6465 23.6563 9.22089 23.8333 8.77169 23.8845C8.32248 23.9357 7.86796 23.859 7.46046 23.6631C7.05296 23.4673 6.70906 23.1604 6.46836 22.7776C6.22767 22.3949 6.09997 21.952 6.09998 21.4999V13.2739V13.2361L6.07498 13.2078C5.22903 12.2485 4.62862 11.0983 4.32534 9.8558C4.02205 8.61333 4.02496 7.31579 4.33381 6.07469C4.64265 4.83358 5.24821 3.68602 6.09845 2.7306C6.94868 1.77518 8.01817 1.04047 9.21502 0.589598C10.4119 0.138728 11.7003 -0.0148196 12.9696 0.142147C14.2389 0.299114 15.4511 0.761903 16.502 1.49075C17.553 2.21959 18.4113 3.1927 19.0031 4.32646C19.595 5.46022 19.9028 6.72073 19.9 7.99969ZM12 1.8999L11.9999 1.8999C10.3826 1.90152 8.83199 2.5447 7.68838 3.68831C6.54478 4.83191 5.9016 6.38251 5.89998 7.9998V7.9999C5.89998 9.20637 6.25774 10.3857 6.92802 11.3889C7.59829 12.392 8.55098 13.1739 9.66561 13.6356C10.7802 14.0973 12.0067 14.2181 13.19 13.9827C14.3733 13.7473 15.4602 13.1664 16.3133 12.3133C17.1664 11.4602 17.7474 10.3732 17.9828 9.18996C18.2181 8.00667 18.0973 6.78016 17.6356 5.66554C17.174 4.55091 16.3921 3.59822 15.389 2.92794C14.3858 2.25766 13.2064 1.8999 12 1.8999ZM15.7602 22.0381C15.7606 22.0379 15.761 22.0377 15.7614 22.0375L15.717 21.9479L15.7589 22.0387C15.7593 22.0385 15.7597 22.0383 15.7602 22.0381Z" fill="#BFBFBF" stroke="#F4F4F4" stroke-width="0.2"/>
</g>
<defs>
<clipPath id="clip0_224_9008">
<rect width="24" height="24" fill="white"/>
</clipPath>
</defs>
</svg>
