<svg width="175" height="178" viewBox="0 0 175 178" fill="none" xmlns="http://www.w3.org/2000/svg">
<path d="M135.885 73.3132C135.885 69.2767 134.312 65.4042 131.509 62.5425C128.706 59.6808 124.901 58.0625 120.927 58.0415C119.523 58.0856 118.13 58.2992 116.776 58.6778C118.497 56.0342 119.423 52.9385 119.439 49.7693C119.545 45.6273 118.103 41.5981 115.402 38.4929C112.701 35.3877 108.942 33.4371 104.881 33.0338C100.821 32.6305 96.7612 33.8044 93.5189 36.3193C90.2767 38.8342 88.0929 42.5032 87.4073 46.5877H86.7808C86.3187 44.2206 85.3475 41.9864 83.9367 40.0447C82.5258 38.1031 80.7101 36.5019 78.6192 35.3556C76.5284 34.2093 74.2141 33.5462 71.8416 33.4136C69.4692 33.2811 67.0972 33.6824 64.8952 34.5889C62.6932 35.4954 60.7155 36.8847 59.1035 38.6575C57.4914 40.4303 56.2849 42.5429 55.57 44.8442C54.8551 47.1455 54.6495 49.5788 54.9679 51.9702C55.2864 54.3616 56.121 56.652 57.4121 58.6778C56.057 58.3049 54.6643 58.0914 53.2613 58.0415C49.4609 58.1563 45.8462 59.7365 43.1519 62.461C40.4576 65.1855 38.8859 68.8497 38.7563 72.7089C38.6266 76.5681 39.9488 80.3326 42.4539 83.2373C44.9591 86.1419 48.4594 87.9687 52.2432 88.3463L46.6827 162.637C56.4738 168.256 67.2957 171.775 78.4792 172.977H95.3956C106.627 171.821 117.504 168.328 127.349 162.717L121.867 88.3463C125.642 88.1051 129.187 86.4202 131.788 83.6309C134.389 80.8415 135.853 77.1549 135.885 73.3132ZM53.2613 81.2673C51.7123 81.2673 50.1981 80.8008 48.9102 79.9268C47.6223 79.0528 46.6185 77.8105 46.0258 76.3571C45.433 74.9037 45.2779 73.3044 45.5801 71.7615C45.8823 70.2185 46.6282 68.8013 47.7235 67.6889C48.8187 66.5765 50.2142 65.8189 51.7334 65.512C53.2526 65.2051 54.8273 65.3626 56.2583 65.9647C57.6894 66.5667 58.9125 67.5862 59.7731 68.8942C60.6336 70.2022 61.0929 71.7401 61.0929 73.3132C60.9924 75.3531 60.1231 77.2755 58.6651 78.6822C57.2072 80.0889 55.2723 80.8721 53.2613 80.8696V81.2673ZM61.5628 49.7693C61.5483 47.8649 62.0949 45.9995 63.1326 44.4132C64.1703 42.8269 65.6515 41.5921 67.3857 40.8677C69.12 40.1433 71.028 39.9623 72.8643 40.3481C74.7006 40.7339 76.3813 41.6688 77.6902 43.0325C78.9991 44.3963 79.8764 46.1266 80.2093 48.0008C80.5422 49.8751 80.3153 51.8076 79.558 53.5499C78.8007 55.2921 77.5475 56.7645 75.9596 57.7775C74.3717 58.7906 72.5217 59.298 70.6476 59.2346C68.2168 59.1723 65.9062 58.1477 64.2089 56.3793C62.5116 54.6109 61.5621 52.2389 61.5628 49.7693ZM87.0941 109.027C83.4474 109.043 79.8783 107.958 76.8397 105.91C73.8012 103.862 71.4301 100.944 70.0274 97.5248C68.6248 94.106 68.2537 90.3411 68.9613 86.7079C69.669 83.0746 71.4234 79.7367 74.002 77.1178C76.5806 74.4989 79.8672 72.717 83.4445 71.9984C87.0219 71.2797 90.7289 71.6565 94.095 73.0811C97.4612 74.5057 100.335 76.9138 102.351 79.9999C104.367 83.0859 105.436 86.7107 105.42 90.4144C105.42 95.3507 103.489 100.085 100.053 103.575C96.6157 107.066 91.9544 109.027 87.0941 109.027ZM103.227 59.2346C100.893 59.0175 98.7227 57.9222 97.1425 56.1637C95.5623 54.4051 94.6863 52.1103 94.6863 49.7295C94.6863 47.3488 95.5623 45.0539 97.1425 43.2954C98.7227 41.5369 100.893 40.4416 103.227 40.2245C104.528 40.1035 105.84 40.2593 107.078 40.682C108.316 41.1046 109.454 41.7849 110.419 42.6793C111.384 43.5737 112.155 44.6626 112.683 45.8765C113.21 47.0905 113.482 48.4027 113.482 49.7295C113.482 51.0564 113.21 52.3686 112.683 53.5825C112.155 54.7964 111.384 55.8854 110.419 56.7798C109.454 57.6742 108.316 58.3544 107.078 58.7771C105.84 59.1998 104.528 59.3556 103.227 59.2346ZM120.927 80.8696C119.378 80.8696 117.864 80.4031 116.576 79.5291C115.288 78.6551 114.284 77.4128 113.691 75.9594C113.099 74.506 112.943 72.9067 113.246 71.3638C113.548 69.8208 114.294 68.4036 115.389 67.2912C116.484 66.1788 117.88 65.4212 119.399 65.1143C120.918 64.8074 122.493 64.9649 123.924 65.567C125.355 66.169 126.578 67.1885 127.439 68.4965C128.299 69.8045 128.758 71.3424 128.758 72.9155C128.758 73.9601 128.556 74.9944 128.162 75.9594C127.769 76.9244 127.192 77.8013 126.465 78.5399C125.737 79.2785 124.874 79.8644 123.924 80.2641C122.974 80.6638 121.955 80.8696 120.927 80.8696Z" fill="#37C3B6"/>
<path d="M99.7815 82.0627L98.6068 80.8696C98.3309 80.6067 97.9669 80.4604 97.5886 80.4604C97.2104 80.4604 96.8464 80.6067 96.5705 80.8696L84.5881 93.2779C84.3122 93.5407 83.9482 93.687 83.57 93.687C83.1917 93.687 82.8277 93.5407 82.5519 93.2779L77.5396 88.3464C77.2638 88.0835 76.8997 87.9372 76.5215 87.9372C76.1432 87.9372 75.7792 88.0835 75.5034 88.3464L74.3286 89.619C74.0698 89.8992 73.9258 90.2689 73.9258 90.653C73.9258 91.0372 74.0698 91.4069 74.3286 91.6871L82.6302 99.6411C82.906 99.9039 83.2701 100.05 83.6483 100.05C84.0265 100.05 84.3906 99.9039 84.6664 99.6411L99.7815 83.733C99.9536 83.4896 100.046 83.1975 100.046 82.8978C100.046 82.5982 99.9536 82.3061 99.7815 82.0627Z" fill="#FA7F35"/>
<path d="M170.031 89.0623C170.043 109.931 162.435 130.062 148.677 145.563C134.919 161.063 115.991 170.831 95.5521 172.977C92.811 172.977 89.9133 173.375 87.0939 173.375C84.2745 173.375 81.3768 173.375 78.6357 172.977C62.6575 171.331 47.4925 165.012 34.9791 154.788C22.4656 144.564 13.1409 130.872 8.13523 115.374C3.12958 99.8751 2.6579 83.2344 6.77737 67.4689C10.8968 51.7034 19.4306 37.49 31.3442 26.5515C43.2578 15.613 58.0397 8.41904 73.8983 5.8417C89.7568 3.26436 106.011 5.41427 120.69 12.0308C135.37 18.6474 147.845 29.4465 156.602 43.1192C165.36 56.7919 170.025 72.7511 170.031 89.0623Z" stroke="#FA7F35" stroke-width="8" stroke-miterlimit="10"/>
</svg>
